<?xml version="1.0" standalone="no"?>
<!DOCTYPE svg PUBLIC "-//W3C//DTD SVG 20010904//EN"
 "http://www.w3.org/TR/2001/REC-SVG-20010904/DTD/svg10.dtd">
<svg version="1.0" xmlns="http://www.w3.org/2000/svg"
 width="512.000000pt" height="512.000000pt" viewBox="0 0 512.000000 512.000000"
 preserveAspectRatio="xMidYMid meet">

<g transform="translate(0.000000,512.000000) scale(0.100000,-0.100000)"
fill="#000000" stroke="none">
<path d="M2040 5113 c-155 -26 -317 -104 -424 -204 l-74 -69 -300 0 c-327 0
-372 -5 -466 -52 -113 -57 -208 -180 -235 -306 -16 -75 -16 -4049 0 -4124 16
-74 62 -162 115 -218 52 -55 155 -113 232 -129 75 -16 3269 -16 3344 0 170 36
311 178 347 347 16 76 16 4049 0 4124 -36 169 -179 312 -347 347 -32 7 -172
11 -354 11 l-301 0 -67 64 c-76 71 -152 120 -254 160 -131 53 -175 56 -704 55
-268 -1 -498 -4 -512 -6z m1039 -308 c35 -9 92 -30 125 -47 100 -53 212 -180
241 -275 l6 -23 -891 0 -891 0 6 23 c17 53 64 126 121 184 66 67 170 126 255
142 24 5 251 9 504 10 378 1 471 -2 524 -14z m-1716 -332 c-8 -38 -13 -104
-11 -150 3 -88 19 -117 80 -149 40 -21 2216 -21 2256 0 61 32 77 61 80 149 2
46 -3 112 -11 150 l-14 67 211 0 c242 0 274 -8 314 -79 l22 -39 0 -2002 0
-2002 -21 -38 c-12 -21 -38 -47 -59 -59 l-38 -21 -1612 0 -1612 0 -38 21 c-21
12 -47 38 -59 59 l-21 38 0 2002 0 2002 22 39 c40 71 71 79 314 79 l211 0 -14
-67z"/>
<path d="M3036 3680 c-67 -21 -115 -102 -102 -173 12 -63 72 -117 131 -117 14
0 25 -3 25 -8 0 -4 -79 -86 -175 -182 l-175 -175 -243 243 c-263 262 -278 273
-354 253 -31 -9 -95 -68 -340 -313 -258 -259 -302 -308 -308 -340 -18 -98 47
-178 145 -178 23 0 51 5 63 11 12 6 124 113 250 237 l227 227 238 -237 c130
-130 247 -241 259 -247 28 -14 98 -14 126 0 12 6 130 119 263 251 l241 240 6
-40 c23 -139 215 -168 280 -42 16 31 17 61 15 267 -3 255 -4 256 -72 307 -26
20 -42 21 -249 23 -122 1 -235 -2 -251 -7z"/>
<path d="M1870 2164 c-19 -8 -88 -67 -152 -131 l-117 -116 -41 37 c-23 20 -52
41 -66 46 -123 47 -246 -86 -188 -203 22 -44 181 -204 226 -228 47 -24 89 -24
136 0 20 11 116 99 213 198 141 142 179 186 188 218 21 76 -26 165 -97 185
-48 13 -60 12 -102 -6z"/>
<path d="M2379 1987 c-91 -61 -89 -181 5 -251 27 -21 37 -21 681 -21 644 0
654 0 681 21 94 70 96 190 5 251 l-34 23 -652 0 -652 0 -34 -23z"/>
<path d="M1915 1315 c-5 -2 -23 -6 -39 -10 -19 -4 -73 -49 -152 -127 l-123
-121 -37 33 c-41 36 -92 60 -126 60 -42 0 -103 -38 -126 -79 -47 -84 -27 -133
111 -269 110 -108 137 -122 215 -107 31 6 66 36 220 188 101 100 191 196 199
212 35 66 10 161 -52 196 -32 18 -74 29 -90 24z"/>
<path d="M2394 1136 c-49 -22 -79 -72 -79 -133 0 -56 18 -90 69 -127 27 -21
37 -21 681 -21 644 0 654 0 681 21 51 37 69 71 69 127 0 62 -30 112 -81 133
-48 20 -1294 20 -1340 0z"/>
</g>
</svg>
