<?xml version="1.0" standalone="no"?>
<!DOCTYPE svg PUBLIC "-//W3C//DTD SVG 20010904//EN"
 "http://www.w3.org/TR/2001/REC-SVG-20010904/DTD/svg10.dtd">
<svg version="1.0" xmlns="http://www.w3.org/2000/svg"
 width="512.000000pt" height="512.000000pt" viewBox="0 0 512.000000 512.000000"
 preserveAspectRatio="xMidYMid meet">

<g transform="translate(0.000000,512.000000) scale(0.100000,-0.100000)"
fill="#000000" stroke="none">
<path d="M155 5104 c-22 -8 -59 -33 -82 -56 -75 -74 -73 -49 -73 -796 0 -476
3 -676 12 -703 15 -51 69 -114 122 -142 37 -20 59 -22 213 -25 l172 -4 26 26
c32 32 33 75 2 104 -22 21 -33 22 -181 22 l-158 0 -29 29 -29 29 0 662 0 662
29 29 29 29 2090 0 c1150 0 2098 3 2107 6 8 4 23 20 31 36 13 25 13 35 3 59
-6 17 -20 34 -30 39 -11 6 -790 10 -2116 9 -1815 0 -2103 -2 -2138 -15z"/>
<path d="M4665 5095 c-14 -13 -25 -36 -25 -50 0 -14 11 -37 25 -50 23 -24 31
-25 134 -25 100 0 112 -2 136 -22 l25 -23 -2 -822 -3 -822 -228 124 -228 125
-1843 0 -1843 0 -21 -23 c-31 -33 -29 -80 4 -106 l27 -21 1819 0 1819 0 277
-152 c165 -90 288 -151 304 -151 15 0 37 8 48 18 20 18 20 29 20 943 l0 925
-24 42 c-26 44 -78 84 -135 103 -19 7 -85 12 -148 12 -108 0 -115 -1 -138 -25z"/>
<path d="M847 4668 c-12 -13 -40 -69 -62 -125 -44 -114 -42 -113 -159 -113
-121 -1 -166 -23 -166 -84 0 -24 11 -40 57 -81 31 -27 74 -66 95 -85 l38 -35
-30 -115 c-34 -131 -30 -159 22 -181 35 -14 38 -13 179 75 l76 47 103 -66 c57
-36 109 -65 116 -65 26 0 62 23 73 47 9 19 6 45 -14 126 -14 56 -28 109 -31
118 -3 12 25 42 91 99 83 72 95 86 95 114 0 63 -43 85 -166 86 -117 0 -115 -1
-159 113 -43 111 -70 147 -110 147 -14 0 -36 -10 -48 -22z m111 -367 c12 -6
39 -11 61 -11 23 0 41 -2 41 -4 0 -2 -18 -22 -40 -44 -42 -42 -46 -56 -30
-111 5 -19 8 -37 5 -39 -2 -2 -19 5 -38 17 -19 11 -47 21 -62 21 -15 0 -43
-10 -62 -21 -19 -12 -36 -19 -38 -17 -3 2 0 20 5 39 16 54 12 67 -31 114 l-42
45 45 0 c56 0 82 19 104 76 l18 46 22 -50 c12 -28 31 -55 42 -61z"/>
<path d="M1957 4668 c-12 -13 -40 -69 -62 -125 -44 -114 -42 -113 -159 -113
-121 -1 -166 -23 -166 -84 0 -24 11 -40 57 -81 31 -27 74 -66 95 -85 l38 -35
-30 -115 c-34 -131 -30 -159 22 -181 35 -14 38 -13 179 75 l76 47 103 -66 c57
-36 109 -65 116 -65 26 0 62 23 73 47 9 19 6 45 -14 126 -14 56 -28 109 -31
118 -3 12 25 42 91 99 83 72 95 86 95 114 0 63 -43 85 -166 86 -117 0 -115 -1
-159 113 -43 111 -70 147 -110 147 -14 0 -36 -10 -48 -22z m111 -367 c12 -6
39 -11 61 -11 23 0 41 -2 41 -4 0 -2 -18 -22 -40 -44 -42 -42 -46 -56 -30
-111 5 -19 8 -36 6 -38 -2 -2 -19 5 -37 16 -43 27 -83 26 -126 0 -19 -12 -36
-19 -38 -17 -3 2 0 20 5 39 16 54 12 67 -31 114 l-42 45 45 0 c56 0 82 19 104
76 l18 46 22 -50 c12 -28 31 -55 42 -61z"/>
<path d="M3067 4668 c-12 -13 -40 -69 -62 -125 -44 -114 -42 -113 -159 -113
-121 -1 -166 -23 -166 -84 0 -24 11 -40 57 -81 31 -27 74 -66 95 -85 l38 -35
-30 -115 c-34 -131 -30 -159 22 -181 35 -14 38 -13 179 75 l76 47 103 -66 c57
-36 109 -65 116 -65 26 0 62 23 73 47 9 19 6 45 -14 126 -14 56 -28 109 -31
118 -3 12 25 42 91 99 83 72 95 86 95 114 0 63 -43 85 -166 86 -117 0 -115 -1
-159 113 -43 111 -70 147 -110 147 -14 0 -36 -10 -48 -22z m111 -367 c12 -6
39 -11 61 -11 23 0 41 -2 41 -4 0 -2 -18 -22 -40 -44 -42 -42 -46 -56 -30
-111 5 -19 8 -36 6 -38 -2 -2 -19 5 -37 16 -43 27 -83 26 -126 0 -19 -12 -36
-19 -38 -17 -3 2 0 20 5 39 16 54 12 67 -31 114 l-42 45 45 0 c56 0 82 19 104
76 l18 46 22 -50 c12 -28 31 -55 42 -61z"/>
<path d="M4177 4668 c-12 -13 -40 -69 -62 -125 -44 -114 -42 -113 -159 -113
-121 -1 -166 -23 -166 -84 0 -24 11 -40 57 -81 31 -27 74 -66 95 -85 l38 -35
-30 -115 c-34 -131 -30 -159 22 -181 35 -14 38 -13 179 75 l76 47 103 -66 c57
-36 109 -65 116 -65 26 0 62 23 73 47 9 19 6 45 -14 126 -14 56 -28 109 -31
118 -3 12 25 42 91 99 83 72 95 86 95 114 0 63 -43 85 -166 86 -117 0 -115 -1
-159 113 -43 111 -70 147 -110 147 -14 0 -36 -10 -48 -22z m111 -367 c12 -6
39 -11 61 -11 23 0 41 -2 41 -4 0 -2 -18 -22 -40 -44 -42 -42 -46 -56 -30
-111 5 -19 8 -36 6 -38 -2 -2 -19 5 -37 16 -43 27 -83 26 -126 0 -19 -12 -36
-19 -38 -17 -3 2 0 20 5 39 16 54 12 67 -31 114 l-42 45 45 0 c56 0 82 19 104
76 l18 46 22 -50 c12 -28 31 -55 42 -61z"/>
<path d="M1662 3183 c-14 -12 -36 -68 -64 -163 l-44 -145 -124 -6 c-96 -4
-136 -10 -170 -26 -89 -41 -103 -64 -345 -584 l-226 -485 -232 -73 c-128 -40
-256 -82 -285 -93 -65 -24 -116 -67 -145 -122 -22 -40 -22 -48 -25 -552 -3
-506 -3 -511 18 -537 l21 -27 224 0 223 0 6 -34 c18 -98 126 -235 224 -285
206 -105 449 -41 574 153 21 33 46 84 54 113 l15 53 190 0 c176 0 190 1 209
20 25 25 26 71 1 101 -19 23 -24 24 -211 29 l-191 5 -17 50 c-41 119 -125 214
-240 268 -63 30 -73 32 -182 32 -111 0 -118 -1 -185 -34 -115 -57 -216 -178
-240 -289 l-7 -32 -169 0 -169 0 0 184 0 184 139 4 c192 4 181 -10 181 228 0
168 -2 189 -18 203 -15 14 -42 17 -160 17 l-142 0 0 28 c0 15 9 41 19 59 21
34 -10 23 450 168 l145 45 161 0 c142 0 164 2 178 18 19 21 387 815 387 835 0
8 -9 26 -21 41 -20 25 -24 26 -130 26 -68 0 -109 4 -109 10 0 20 48 105 70
125 22 20 36 20 890 20 854 0 868 0 890 -20 22 -20 70 -105 70 -125 0 -6 -41
-10 -109 -10 -106 0 -110 -1 -130 -26 -12 -15 -21 -33 -21 -41 0 -21 368 -814
387 -835 14 -16 37 -18 177 -18 152 0 192 -5 736 -89 l574 -89 28 -31 c17 -19
28 -43 28 -61 l0 -30 -143 0 c-127 0 -146 -2 -160 -18 -15 -16 -17 -45 -17
-204 0 -236 -11 -222 181 -226 l139 -4 0 -184 0 -184 -204 0 -204 0 -7 32
c-24 111 -126 233 -240 289 -67 33 -74 34 -185 34 -109 0 -119 -2 -182 -32
-115 -54 -199 -149 -240 -268 l-17 -50 -761 -5 -762 -5 -19 -24 c-26 -32 -24
-73 4 -99 l23 -22 756 0 757 0 15 -53 c42 -144 178 -272 326 -306 95 -22 211
-6 302 40 98 50 206 187 224 285 l6 34 333 0 334 0 20 26 c26 33 27 65 3 94
-14 18 -32 24 -75 28 l-56 4 -3 457 c-3 505 -1 490 -70 560 -61 63 -77 66
-654 155 -301 47 -551 89 -555 93 -5 5 -108 222 -230 483 -236 508 -250 532
-339 573 -36 17 -71 22 -171 25 l-126 4 -44 146 c-24 80 -51 154 -61 164 -15
15 -35 18 -126 18 -100 0 -110 -2 -130 -23 -28 -30 -29 -78 -1 -103 15 -13 41
-21 87 -24 l66 -5 27 -87 27 -88 -480 0 c-432 0 -480 2 -474 16 3 8 16 49 27
90 l22 74 214 0 c214 0 214 0 238 25 32 31 33 74 2 103 -23 21 -30 22 -279 22
-229 0 -258 -2 -276 -17z m-374 -782 c-1 -5 -66 -145 -142 -310 l-140 -301
-72 0 -72 0 135 288 c74 158 139 297 144 310 8 20 15 22 80 22 39 0 69 -4 67
-9z m2086 -303 l144 -308 -72 0 -72 0 -140 301 c-76 165 -141 305 -142 310 -3
6 25 9 67 7 l71 -3 144 -307z m-3054 -983 l0 -75 -85 0 -85 0 0 75 0 75 85 0
85 0 0 -75z m4500 0 l0 -75 -85 0 -85 0 0 75 0 75 85 0 85 0 0 -75z m-3758
-418 c94 -55 139 -129 146 -238 4 -66 1 -84 -20 -130 -34 -75 -70 -114 -132
-144 -111 -54 -233 -41 -320 36 -159 140 -131 384 56 479 58 29 69 31 144 28
65 -3 90 -9 126 -31z m3047 2 c185 -92 214 -338 57 -476 -84 -74 -204 -91
-308 -45 -65 29 -104 66 -137 134 -50 99 -41 219 23 303 60 78 133 114 237
115 54 0 77 -5 128 -31z"/>
<path d="M893 510 c-26 -11 -43 -40 -43 -74 0 -63 89 -90 129 -40 12 15 21 33
21 40 0 26 -23 62 -47 73 -28 13 -30 13 -60 1z"/>
<path d="M3944 509 c-22 -11 -44 -48 -44 -73 0 -7 9 -25 21 -40 41 -52 129
-23 129 43 0 55 -59 93 -106 70z"/>
<path d="M1683 2538 c-24 -28 -383 -802 -383 -827 0 -10 9 -30 21 -45 l20 -26
843 0 c726 0 844 2 863 15 47 33 44 43 -153 468 -102 221 -193 410 -201 420
-15 16 -52 17 -503 17 l-487 0 -20 -22z m1053 -429 c76 -165 141 -305 142
-310 2 -5 -274 -9 -688 -9 -676 0 -691 0 -685 19 3 11 58 131 122 268 63 136
124 267 134 291 l18 42 409 0 409 0 139 -301z"/>
<path d="M1343 1430 c-45 -19 -55 -72 -22 -114 l20 -26 170 0 c156 0 171 2
189 20 27 27 26 81 -1 106 -19 17 -40 19 -178 21 -86 1 -166 -2 -178 -7z"/>
<path d="M2230 1370 c-17 -17 -20 -33 -20 -125 0 -92 3 -108 20 -125 30 -30
83 -27 110 7 20 25 21 38 18 124 -2 78 -7 101 -22 118 -25 27 -79 28 -106 1z"/>
<path d="M2630 1370 c-17 -17 -20 -33 -20 -125 0 -121 12 -145 74 -145 58 0
76 34 76 145 0 78 -3 96 -21 119 -26 33 -79 36 -109 6z"/>
<path d="M3030 1370 c-17 -17 -20 -33 -20 -125 0 -121 12 -145 74 -145 58 0
76 34 76 145 0 78 -3 96 -21 119 -26 33 -79 36 -109 6z"/>
<path d="M2432 1037 c-20 -21 -22 -34 -22 -124 0 -118 12 -144 69 -145 26 -1
40 6 59 27 22 26 24 34 20 127 -3 91 -5 102 -27 119 -32 26 -73 24 -99 -4z"/>
<path d="M2832 1037 c-20 -21 -22 -34 -22 -124 0 -118 12 -144 69 -145 26 -1
40 6 59 27 22 26 24 34 20 127 -3 91 -5 102 -27 119 -32 26 -73 24 -99 -4z"/>
</g>
</svg>
