<?xml version="1.0" standalone="no"?>
<!DOCTYPE svg PUBLIC "-//W3C//DTD SVG 20010904//EN"
 "http://www.w3.org/TR/2001/REC-SVG-20010904/DTD/svg10.dtd">
<svg version="1.0" xmlns="http://www.w3.org/2000/svg"
 width="512.000000pt" height="512.000000pt" viewBox="0 0 512.000000 512.000000"
 preserveAspectRatio="xMidYMid meet">

<g transform="translate(0.000000,512.000000) scale(0.100000,-0.100000)"
fill="#000000" stroke="none">
<path d="M2443 5099 c-74 -23 -134 -67 -185 -134 -53 -70 -73 -134 -72 -231 0
-68 5 -90 31 -147 48 -100 132 -173 246 -211 15 -5 17 -19 17 -115 l0 -110
-57 -6 c-328 -36 -626 -157 -866 -353 l-68 -55 -200 199 -199 200 29 55 c78
143 80 303 6 450 -45 87 -152 189 -200 189 -32 0 -64 -30 -71 -67 -6 -29 -1
-37 58 -95 88 -87 112 -139 112 -248 1 -73 -3 -93 -27 -141 -32 -66 -99 -132
-165 -162 -68 -31 -199 -31 -263 1 -74 36 -125 87 -161 159 -83 169 -10 363
166 443 73 33 89 50 89 92 0 71 -73 85 -176 34 -290 -143 -352 -532 -123 -762
155 -155 374 -187 565 -83 l55 29 200 -199 199 -200 -55 -68 c-196 -240 -321
-546 -353 -865 l-7 -68 -108 0 -108 0 -17 49 c-61 186 -258 295 -446 247 -117
-31 -218 -117 -261 -225 -31 -78 -31 -204 0 -282 60 -151 227 -252 388 -234
153 16 274 118 327 278 6 15 21 17 116 17 l110 0 6 -57 c36 -328 157 -626 353
-866 l55 -68 -199 -200 -200 -199 -55 29 c-191 104 -410 72 -565 -83 -285
-286 -112 -766 294 -811 131 -15 278 39 378 139 155 155 187 374 83 565 l-29
55 199 200 200 199 69 -56 c248 -200 520 -310 875 -353 l47 -5 0 -110 c0 -96
-2 -110 -17 -115 -156 -52 -262 -177 -278 -328 -19 -173 95 -344 262 -396 212
-65 423 53 479 269 50 195 -62 385 -268 454 -16 6 -18 21 -18 116 l0 110 48 5
c355 43 622 151 876 354 l68 55 199 -199 199 -200 -29 -55 c-104 -191 -72
-410 83 -565 284 -284 761 -114 811 289 9 71 -11 189 -37 222 -25 32 -79 34
-109 4 -19 -19 -21 -27 -13 -78 22 -148 -4 -249 -86 -331 -64 -64 -138 -94
-230 -95 -66 0 -85 5 -143 33 -72 36 -123 87 -159 161 -18 37 -23 63 -23 131
0 73 4 93 28 141 71 145 236 220 389 175 63 -18 99 -11 117 23 31 57 -2 102
-94 126 -114 29 -236 13 -344 -46 l-55 -29 -200 199 -199 200 55 68 c199 244
311 522 354 875 l5 48 110 0 c95 0 110 -2 116 -17 39 -116 107 -197 204 -243
155 -73 331 -36 444 94 65 73 89 141 89 246 0 106 -26 178 -90 249 -195 217
-548 145 -639 -130 l-17 -49 -108 0 -109 0 -6 58 c-34 333 -155 632 -353 875
l-55 68 199 200 200 199 55 -29 c191 -104 410 -72 565 83 285 286 112 766
-294 811 -131 15 -278 -39 -378 -139 -155 -155 -187 -374 -83 -565 l29 -55
-199 -200 -199 -199 -68 55 c-251 200 -537 317 -866 353 l-58 6 0 110 c0 95 2
110 18 116 206 69 318 259 268 454 -56 217 -270 336 -483 268z m218 -156 c101
-52 147 -157 115 -266 -21 -73 -93 -140 -166 -156 -77 -17 -138 1 -200 56 -88
79 -102 192 -37 290 40 60 118 103 187 103 31 0 65 -9 101 -27z m1895 -227
c68 -31 129 -94 162 -165 21 -44 26 -71 27 -131 0 -66 -5 -85 -33 -143 -36
-72 -86 -122 -161 -159 -37 -18 -63 -23 -131 -23 -73 0 -93 4 -141 28 -188 92
-246 328 -121 492 41 55 123 109 186 124 60 15 152 4 212 -23z m-1728 -740
c292 -59 539 -192 747 -401 458 -457 556 -1144 244 -1710 -70 -127 -137 -215
-254 -331 -201 -200 -455 -333 -742 -391 -122 -24 -404 -24 -526 0 -587 118
-1036 567 -1154 1154 -24 122 -24 404 0 526 112 560 530 1001 1077 1136 47 11
117 25 155 30 94 13 362 5 453 -13z m-2381 -1201 c69 -21 137 -94 152 -165 17
-77 -1 -138 -56 -200 -79 -88 -192 -102 -290 -37 -60 40 -103 118 -103 186 0
94 66 184 157 217 50 17 79 17 140 -1z m4366 1 c91 -33 157 -123 157 -217 0
-68 -43 -146 -103 -186 -61 -41 -119 -50 -190 -29 -73 21 -140 93 -156 167
-25 114 40 228 149 263 57 18 95 19 143 2z m-3981 -1773 c65 -30 133 -95 165
-162 24 -48 28 -68 28 -141 0 -68 -5 -94 -23 -131 -37 -75 -87 -125 -159 -161
-58 -28 -77 -33 -143 -33 -60 1 -87 6 -131 27 -140 64 -219 216 -190 360 24
112 117 219 221 253 61 20 172 14 232 -12z m1777 -404 c74 -16 146 -82 167
-156 32 -109 -14 -214 -115 -266 -69 -34 -128 -35 -198 -3 -94 44 -145 144
-124 245 21 105 98 173 213 190 4 1 30 -4 57 -10z"/>
<path d="M2490 3639 c-299 -32 -529 -310 -507 -613 9 -126 52 -232 132 -330
25 -31 45 -58 45 -61 0 -3 -29 -5 -64 -5 -174 0 -332 -106 -414 -278 l-37 -77
-3 -297 c-3 -289 -3 -297 17 -317 20 -20 30 -21 390 -21 l370 0 20 26 c34 43
26 86 -20 109 -18 10 -59 15 -119 15 l-90 0 0 75 c0 67 -3 79 -25 100 -13 14
-36 25 -50 25 -14 0 -37 -11 -50 -25 -22 -21 -25 -33 -25 -100 l0 -75 -135 0
-135 0 0 215 c0 191 2 220 20 269 26 69 83 134 151 171 l54 30 545 0 545 0 54
-30 c68 -37 125 -102 151 -171 18 -49 20 -78 20 -269 l0 -215 -135 0 -135 0 0
75 c0 67 -3 79 -25 100 -31 32 -69 32 -100 0 -22 -21 -25 -33 -25 -100 l0 -75
-90 0 c-60 0 -101 -5 -119 -15 -46 -23 -54 -66 -20 -109 l20 -26 370 0 c360 0
370 1 390 21 20 20 20 28 17 317 l-3 297 -37 77 c-82 172 -240 278 -414 278
-35 0 -64 2 -64 5 0 3 20 30 45 61 149 182 175 421 70 632 -68 134 -183 233
-330 283 -89 30 -159 38 -255 28z m256 -188 c323 -159 323 -613 -1 -772 -67
-33 -74 -34 -185 -34 -111 0 -118 1 -185 34 -345 170 -315 664 48 793 40 14
74 18 153 16 91 -3 107 -7 170 -37z"/>
</g>
</svg>
