<?xml version="1.0" standalone="no"?>
<!DOCTYPE svg PUBLIC "-//W3C//DTD SVG 20010904//EN"
 "http://www.w3.org/TR/2001/REC-SVG-20010904/DTD/svg10.dtd">
<svg version="1.0" xmlns="http://www.w3.org/2000/svg"
 width="512.000000pt" height="512.000000pt" viewBox="0 0 512.000000 512.000000"
 preserveAspectRatio="xMidYMid meet">

<g transform="translate(0.000000,512.000000) scale(0.100000,-0.100000)"
fill="#000000" stroke="none">
<path d="M1800 4631 l0 -490 -52 18 c-119 41 -227 56 -398 56 -182 -1 -268
-14 -426 -66 -203 -66 -361 -166 -524 -329 -203 -202 -318 -417 -377 -700 -22
-106 -24 -370 -4 -480 49 -272 180 -522 380 -721 200 -201 433 -324 713 -377
l88 -16 0 -763 0 -763 150 0 150 0 0 764 0 763 75 12 c41 7 108 23 150 36 l75
23 0 -489 0 -489 1660 0 1660 0 0 1758 0 1757 -493 493 -492 492 -1168 0
-1167 0 0 -489z m2120 -261 l0 -450 450 0 450 0 0 -1500 0 -1500 -1360 0
-1360 0 0 415 0 414 48 32 c84 58 254 238 325 344 156 236 222 457 222 745 0
222 -33 373 -122 570 -78 171 -255 390 -405 502 l-68 51 0 413 0 414 910 0
910 0 0 -450z m495 40 l190 -190 -193 0 -192 0 0 190 c0 105 1 190 3 190 1 0
88 -85 192 -190z m-2825 -518 c198 -52 365 -146 501 -281 135 -135 226 -297
282 -501 29 -109 29 -371 0 -480 -56 -204 -147 -366 -282 -501 -135 -135 -297
-226 -501 -282 -110 -30 -371 -29 -483 1 -464 127 -777 502 -804 962 -27 471
268 905 714 1053 59 20 137 40 173 46 98 15 311 6 400 -17z"/>
<path d="M3170 3170 l0 -150 600 0 600 0 0 150 0 150 -600 0 -600 0 0 -150z"/>
<path d="M3020 2570 l0 -150 675 0 675 0 0 150 0 150 -675 0 -675 0 0 -150z"/>
<path d="M2870 1970 l0 -150 750 0 750 0 0 150 0 150 -750 0 -750 0 0 -150z"/>
<path d="M1200 3020 l0 -600 150 0 150 0 0 600 0 600 -150 0 -150 0 0 -600z"/>
<path d="M1800 2870 l0 -450 150 0 150 0 0 450 0 450 -150 0 -150 0 0 -450z"/>
<path d="M600 2720 l0 -300 150 0 150 0 0 300 0 300 -150 0 -150 0 0 -300z"/>
</g>
</svg>
