<?xml version="1.0" standalone="no"?>
<!DOCTYPE svg PUBLIC "-//W3C//DTD SVG 20010904//EN"
 "http://www.w3.org/TR/2001/REC-SVG-20010904/DTD/svg10.dtd">
<svg version="1.0" xmlns="http://www.w3.org/2000/svg"
 width="360.000000pt" height="360.000000pt" viewBox="0 0 360.000000 360.000000"
 preserveAspectRatio="xMidYMid meet">

<g transform="translate(0.000000,360.000000) scale(0.100000,-0.100000)"
fill="#000000" stroke="none">
<path d="M1135 3586 c-98 -31 -172 -99 -210 -191 -21 -53 -27 -59 -67 -73 -23
-8 -62 -28 -85 -46 -47 -35 -108 -121 -118 -166 -5 -24 -15 -32 -58 -46 -38
-13 -68 -34 -113 -78 -103 -103 -94 28 -94 -1442 l0 -1283 21 -58 c26 -68 92
-138 164 -173 l50 -25 915 0 915 0 51 23 c69 31 139 105 169 177 21 53 27 59
67 73 23 8 62 28 85 46 47 35 108 121 118 166 5 23 15 32 52 44 56 19 121 68
157 118 59 82 56 5 56 1404 l0 1283 -21 58 c-26 68 -92 138 -164 173 l-50 25
-900 2 c-707 2 -909 -1 -940 -11z m1863 -149 c23 -15 52 -46 64 -70 l23 -42 0
-1270 c0 -1176 -1 -1272 -17 -1301 -18 -33 -82 -94 -98 -94 -6 0 -10 428 -10
1178 0 1213 -1 1256 -40 1332 -26 50 -89 111 -146 140 l-49 25 -843 3 -842 2
14 28 c19 36 54 68 96 86 31 13 146 15 921 13 l885 -2 42 -28z m-291 -238 c40
-15 82 -57 104 -104 18 -38 19 -95 19 -1295 0 -1199 -1 -1257 -19 -1296 -16
-36 -84 -104 -103 -104 -4 0 -9 550 -10 1223 l-3 1222 -22 47 c-32 70 -94 131
-166 164 l-62 29 -827 3 c-500 2 -828 6 -828 12 0 17 65 83 95 96 39 17 1777
20 1822 3z m-287 -250 c59 -13 108 -52 131 -103 18 -39 19 -92 19 -1304 0
-1222 -1 -1264 -19 -1300 -22 -43 -53 -73 -98 -96 -30 -15 -116 -16 -921 -14
l-888 3 -42 28 c-23 15 -52 46 -64 70 l-23 42 -3 1235 c-2 871 1 1251 9 1288
16 78 70 135 144 153 49 11 1703 10 1755 -2z"/>
<path d="M2165 2743 c-78 -41 -112 -107 -102 -201 l6 -57 -105 -106 -106 -106
-36 19 c-50 26 -145 21 -188 -9 l-30 -21 -94 57 -95 57 -6 72 c-4 60 -10 78
-35 109 -39 49 -93 75 -153 75 -50 0 -113 -26 -143 -59 -43 -47 -59 -129 -37
-191 11 -31 8 -36 -81 -147 -87 -109 -94 -115 -128 -115 -170 -1 -250 -214
-125 -332 36 -34 73 -48 128 -48 81 0 141 39 176 115 25 54 24 103 -5 157
l-24 44 81 102 80 102 51 -6 c36 -4 63 -1 90 10 l40 16 104 -62 105 -63 14
-59 c16 -73 52 -122 107 -147 129 -59 276 36 276 178 0 35 9 47 120 156 109
109 121 117 141 107 34 -18 122 -7 162 20 94 64 115 196 45 285 -47 60 -165
84 -233 48z m129 -129 c21 -20 20 -63 -1 -86 -35 -39 -103 -11 -103 43 0 36
24 59 60 59 16 0 36 -7 44 -16z m-1026 -126 c17 -15 15 -68 -5 -90 -33 -37
-103 -10 -103 40 0 60 60 87 108 50z m519 -334 c20 -31 10 -71 -22 -86 -55
-25 -111 24 -87 77 22 47 80 52 109 9z m-907 -184 c25 -25 25 -51 2 -80 -35
-43 -112 -15 -112 41 0 27 35 59 65 59 14 0 34 -9 45 -20z"/>
<path d="M770 1545 l0 -65 770 0 770 0 0 65 0 65 -770 0 -770 0 0 -65z"/>
<path d="M770 1285 l0 -65 770 0 770 0 0 65 0 65 -770 0 -770 0 0 -65z"/>
<path d="M985 1077 c-109 -37 -195 -112 -242 -212 -25 -53 -28 -71 -28 -160 0
-88 3 -107 27 -158 33 -70 116 -155 182 -186 153 -71 322 -42 439 76 153 152
153 387 0 541 -74 75 -145 105 -253 109 -52 2 -101 -2 -125 -10z m45 -217 l0
-90 -90 0 c-56 0 -90 4 -90 10 0 41 67 123 125 153 53 28 55 25 55 -73z m204
58 c56 -37 90 -85 107 -151 11 -44 7 -126 -6 -148 -3 -5 -44 19 -90 54 l-84
62 -1 108 c0 123 1 124 74 75z m-70 -345 l88 -66 -38 -23 c-109 -66 -260 -28
-334 84 -47 71 -46 72 83 72 l112 0 89 -67z"/>
<path d="M1610 965 l0 -65 350 0 350 0 0 65 0 65 -350 0 -350 0 0 -65z"/>
<path d="M1610 705 l0 -65 350 0 350 0 0 65 0 65 -350 0 -350 0 0 -65z"/>
<path d="M1958 512 l-348 -2 0 -60 0 -60 349 0 349 0 4 61 c1 34 1 62 -2 62
-3 1 -161 1 -352 -1z"/>
</g>
</svg>
