<?xml version="1.0" standalone="no"?>
<!DOCTYPE svg PUBLIC "-//W3C//DTD SVG 20010904//EN"
 "http://www.w3.org/TR/2001/REC-SVG-20010904/DTD/svg10.dtd">
<svg version="1.0" xmlns="http://www.w3.org/2000/svg"
 width="512.000000pt" height="512.000000pt" viewBox="0 0 512.000000 512.000000"
 preserveAspectRatio="xMidYMid meet">

<g transform="translate(0.000000,512.000000) scale(0.100000,-0.100000)"
fill="#000000" stroke="none">
<path d="M1793 4515 c-225 -61 -363 -267 -332 -495 11 -76 52 -167 105 -228
20 -24 35 -44 33 -46 -2 -1 -24 -11 -49 -22 -83 -35 -184 -110 -257 -188 l-73
-78 -63 16 c-156 39 -306 -2 -420 -115 -100 -100 -145 -237 -126 -379 12 -79
43 -148 98 -218 24 -30 41 -54 39 -55 -1 -1 -43 -22 -91 -46 -152 -75 -293
-226 -360 -387 -30 -70 -57 -195 -57 -260 0 -117 68 -208 205 -275 180 -87
520 -129 804 -99 52 6 96 9 97 7 2 -2 -12 -47 -31 -101 -44 -123 -65 -241 -65
-371 0 -93 3 -107 30 -161 33 -66 115 -155 166 -179 38 -18 73 -9 98 27 29 41
20 64 -53 137 -81 79 -87 96 -78 240 21 352 252 688 592 863 181 92 346 132
555 132 209 0 374 -40 555 -132 224 -115 394 -291 501 -516 58 -124 84 -228
91 -361 5 -99 3 -115 -15 -152 -132 -258 -958 -396 -1657 -278 -122 20 -143
22 -166 10 -45 -24 -54 -88 -16 -122 56 -52 504 -101 814 -89 619 24 1038 171
1168 407 26 48 30 65 33 159 5 130 -15 253 -63 386 -19 54 -33 99 -31 101 1 2
45 -1 97 -7 284 -30 624 12 804 99 137 67 205 158 205 275 0 60 -26 184 -51
250 -27 67 -106 193 -129 206 -31 16 -78 12 -100 -10 -32 -32 -25 -76 25 -154
52 -80 84 -173 92 -266 5 -57 2 -68 -17 -93 -78 -98 -395 -167 -705 -154 -132
6 -303 29 -330 45 -7 4 -40 42 -74 84 -34 42 -84 96 -113 121 l-50 43 17 59
c113 390 567 570 948 375 43 -22 85 -40 93 -40 24 0 74 56 74 82 0 39 -28 67
-111 108 l-79 40 41 53 c146 183 134 434 -28 596 -114 113 -264 154 -420 115
l-63 -16 -73 78 c-73 78 -174 153 -257 188 -25 11 -47 21 -49 22 -2 2 13 22
33 46 152 177 143 443 -21 606 -97 97 -248 147 -379 125 -220 -38 -374 -219
-374 -438 0 -113 31 -195 109 -293 18 -23 32 -44 30 -46 -2 -2 -25 -12 -50
-24 -26 -11 -73 -37 -105 -57 l-59 -38 -145 0 -145 0 -60 39 c-33 21 -81 48
-105 58 -25 11 -47 21 -49 23 -2 1 13 22 33 47 79 97 111 194 104 320 -14 272
-284 471 -545 401z m234 -178 c204 -104 204 -400 1 -503 -189 -96 -410 40
-410 251 0 118 82 235 191 270 66 21 154 14 218 -18z m1280 18 c113 -34 194
-147 194 -270 0 -213 -219 -347 -409 -251 -188 95 -206 367 -32 482 82 54 156
66 247 39z m-1264 -731 c40 -9 99 -29 132 -43 l59 -27 -56 -38 c-202 -134
-333 -392 -314 -618 l6 -68 -48 0 c-64 0 -201 17 -288 36 l-72 15 14 46 c36
119 6 277 -72 383 l-45 61 32 40 c71 90 233 186 360 213 88 20 206 19 292 0z
m1322 1 c132 -28 284 -117 361 -211 l35 -42 -45 -62 c-78 -106 -108 -264 -72
-383 l14 -46 -72 -15 c-87 -19 -224 -36 -289 -36 l-48 0 7 58 c12 114 -35 314
-84 353 -48 37 -122 2 -122 -57 0 -14 10 -53 22 -87 32 -92 30 -237 -4 -333
-79 -223 -276 -364 -508 -364 -232 0 -429 141 -508 364 -20 56 -25 91 -25 166
-1 157 46 273 154 381 199 200 502 213 728 31 70 -57 95 -63 134 -32 31 25 41
63 25 94 -15 27 -82 86 -143 124 l-40 26 55 25 c127 58 287 75 425 46z m-2225
-311 c70 -21 149 -98 173 -168 49 -143 -9 -288 -141 -353 -47 -23 -69 -28
-127 -27 -83 1 -130 20 -190 75 -120 111 -117 302 7 414 79 71 172 91 278 59z
m3017 1 c69 -20 143 -88 173 -157 60 -139 3 -294 -135 -366 -41 -21 -64 -26
-125 -26 -64 0 -83 4 -129 29 -173 95 -205 313 -66 452 78 77 173 100 282 68z
m-2675 -600 c114 -27 261 -45 366 -45 l68 0 28 -57 c38 -78 114 -171 181 -223
l56 -43 -90 -33 c-50 -18 -129 -53 -175 -78 l-84 -45 -21 57 c-66 180 -222
347 -405 433 -61 28 -65 33 -49 45 10 7 19 14 20 14 1 0 48 -11 105 -25z
m2281 11 c16 -12 12 -17 -49 -45 -183 -86 -339 -253 -405 -433 l-21 -57 -84
45 c-46 25 -125 60 -174 78 l-91 32 60 47 c66 52 140 145 179 225 l26 52 68 0
c103 0 260 20 362 45 111 28 107 27 129 11z m-2568 -141 c230 -49 416 -220
480 -440 l17 -59 -50 -43 c-29 -25 -79 -79 -113 -121 -34 -42 -67 -80 -74 -84
-27 -16 -198 -39 -330 -45 -242 -10 -488 28 -622 96 -108 54 -122 95 -83 246
83 323 427 523 775 450z"/>
<path d="M1635 855 c-16 -15 -25 -36 -25 -55 0 -39 39 -80 75 -80 32 0 85 50
85 80 0 30 -53 80 -85 80 -14 0 -37 -11 -50 -25z"/>
</g>
</svg>
